<svg width="40" height="40" viewBox="0 0 40 40" fill="none" xmlns="http://www.w3.org/2000/svg">
<path d="M28.7257 33.3177C26.9537 35.075 25.019 34.7975 23.1567 33.9651C21.1859 33.1142 19.3777 33.0772 17.2984 33.9651C14.6947 35.112 13.3206 34.779 11.7656 33.3177C2.94205 24.0133 4.24389 9.844 14.2608 9.32606C16.7017 9.45555 18.4014 10.6949 19.8298 10.8059C21.9633 10.3619 24.0065 9.08559 26.2847 9.25207C29.015 9.47404 31.0762 10.5839 32.4323 12.5817C26.791 16.0408 28.129 23.6433 33.3002 25.7706C32.2695 28.5453 30.9315 31.3014 28.7076 33.3362L28.7257 33.3177ZM19.649 9.21507C19.3777 5.09007 22.6504 1.68648 26.4113 1.35352C26.9356 6.12594 22.1803 9.67752 19.649 9.21507Z" fill="white"/>
</svg>
