<?xml version="1.0" encoding="utf-8"?>
<!-- Generator: Adobe Illustrator 27.7.0, SVG Export Plug-In . SVG Version: 6.00 Build 0)  -->
<svg version="1.1" id="Layer_1" xmlns="http://www.w3.org/2000/svg" xmlns:xlink="http://www.w3.org/1999/xlink" x="0px" y="0px"
	 viewBox="0 0 1650 400" style="enable-background:new 0 0 1650 400;" xml:space="preserve">
<style type="text/css">
	.st0{fill-rule:evenodd;clip-rule:evenodd;fill:#FFFFFF;}
	.st1{fill:#FFCD05;}
	.st2{fill-rule:evenodd;clip-rule:evenodd;fill:#FFCD05;}
	.st3{fill:#FFFFFF;}
</style>
<g>
	<path class="st0" d="M920.71,349.5h-51.64v-88.6h-53.48v-38.15h158.6v37.97h-53.48V349.5z M992.64,349.5h51.64V222.75h-51.64V349.5
		z M1221.32,222.75v126.57h51.64V255.3h60.85v27.12h-50.53l53.12,66.9h57.17l-44.44-56.05h36.52V255.3l-30.43-32.55H1221.32z
		 M243.52,349.5h51.64v-94.02h60.86v27.12H305.3l53.11,66.9h57.17l-44.45-56.05h36.51v-37.97l-30.43-32.55h-133.7V349.5z
		 M1514.74,302.49v14.47h-108.81v32.55h130.01l30.43-32.55v-14.47l-30.43-32.55h-85.76v-14.47h105.12v-32.73h-125.04l-31.72,32.55
		v14.47l30.43,32.55h85.76V302.49z M1206.57,255.48h-92.21v14.47h68.23v32.55h-38.72l-29.51-24.77v39.24h92.21v32.55h-143.85V222.75
		h143.85V255.48z M572.9,222.75H453.02l-30.43,32.55v61.48l30.43,32.55H572.9l30.43-32.55V255.3L572.9,222.75z M472.39,259.09h79.3
		v54.24h-79.3V259.09z M680.41,222.75h-58.65l40.2,50.63h-42.05v75.94h51.64v-63.83l50.72,63.83h74.69V222.75h-51.64v81.91
		L680.41,222.75z M83.63,222.75h143.85v32.55h-92.21v25.31h68.24v32.55h-38.73l-29.51-24.77v60.93H83.63V222.75z"/>
	<path class="st1" d="M687.79,87.03l5.72,29.29l5.72-43.94h13.83l-10.88,77.21h-16.41l-4.61-22.96l-4.61,23.14h-16.23l-11.07-77.39
		h14.02l5.72,44.84l6.46-30.2H687.79z M718.95,121.2h-5.35v12.3h3.14l-2.95,16.09h13.65l2.95-16.09h5.72v-12.11h-3.5l3.5-25.31
		l8.67,53.7h14.02l-14.2-77.21h-16.97L718.95,121.2z M793.64,72.2h-29.88v77.21h13.65V98.78V84.32h12.36v14.46H777.6l15.86,50.63
		H806l-11.07-38.69c2.21-0.36,4.43-1.27,6.27-2.89c1.66-1.63,2.58-3.8,2.58-5.97V81.06l-0.18-1.27c-0.37-2.17-1.29-3.98-3.14-5.61
		C798.44,72.92,796.22,72.2,793.64,72.2z"/>
	<path class="st1" d="M857.08,72.2c2.58,0,4.79,0.72,6.64,2.17c1.84,1.45,2.95,3.25,3.14,5.61l0.18,1.27v20.79
		c0,2.17-0.92,4.16-2.58,5.97c-1.84,1.63-3.87,2.71-6.27,2.89l11.07,38.69h-12.54l-15.86-50.63h12.17V84.5h-11.99v14.46v50.63
		h-13.65V72.2H857.08z M901.16,84.31v53.16h-12.17V84.31H901.16z M875.16,81.06v60.03c0,2.17,0.74,3.98,2.4,5.61
		c1.48,1.63,3.5,2.71,5.72,2.89h23.24c2.21-0.36,4.24-1.27,5.9-2.89c1.48-1.63,2.4-3.44,2.4-5.61V81.06c0-2.17-0.74-3.98-2.4-5.61
		c-1.66-1.63-3.69-2.53-5.9-3.07h-23.05c-2.21,0.36-4.24,1.27-5.72,3.07C876.08,76.72,875.16,78.71,875.16,81.06z M946.9,137.47
		h-9.96v-26.58h9.96V137.47z M946.9,84.31v14.46h-9.96V84.31H946.9z M923.11,72.2v77.39h27.29c2.77,0,5.16-0.9,7.19-2.53
		c2.03-1.63,2.95-3.8,2.95-6.33v-30.56l-0.37-2.17c-1.29-1.27-2.95-2.17-5.16-2.89c2.21-0.54,4.06-1.45,5.35-2.71V81.06
		c0-2.35-0.92-4.52-2.95-6.33c-2.03-1.81-4.43-2.53-7.19-2.53H923.11z M994.66,137.47h-12.17V84.5h12.17V137.47z M976.96,72.2
		c-2.21,0.36-4.24,1.27-5.72,3.07c-1.48,1.63-2.4,3.62-2.4,5.61v60.03c0,2.17,0.74,3.98,2.4,5.61c1.48,1.63,3.5,2.71,5.72,2.89
		h23.24c2.21-0.36,4.24-1.27,5.9-2.89c1.48-1.63,2.4-3.44,2.4-5.61V81.06c0-2.17-0.74-3.98-2.4-5.61c-1.66-1.63-3.69-2.53-5.9-3.07
		h-23.24V72.2z M1029.7,149.59h13.65V84.31h12.36V72.2h-39.47v12.11h13.46V149.59z M1099.23,75.82c-2.03-1.99-4.61-3.07-7.38-3.8
		h-17.15c-2.95,0.36-5.53,1.63-7.38,3.8c-2.03,2.17-2.95,4.52-2.95,7.23v16.82c0,3.07,1.29,5.61,3.69,7.96
		c2.4,2.17,5.35,3.07,9.04,3.07h11.8v26.58h-10.7v-9.22h-13.65v10.49c0,2.71,1.11,5.06,3.14,7.23c2.03,1.99,4.61,3.07,7.38,3.8
		l0.37,0.18h16.78l0.37-0.18c3.14-0.36,5.53-1.45,7.38-3.62c2.03-2.17,3.14-4.52,3.14-7.23v-29.11c0-3.07-1.29-5.61-3.69-7.96
		c-2.4-2.17-5.35-3.07-9.04-3.07h-11.8V84.31h10.7v9.22h13.65V83.05C1102.36,80.34,1101.26,77.99,1099.23,75.82z"/>
	<path class="st2" d="M558.69,50.5l52.19,29.47v59.12l-52.19,29.65l-52.38-29.65V79.97L558.69,50.5z M509.45,81.78v55.69
		l49.24,27.84l49.06-27.84V81.78l-49.06-27.84L509.45,81.78z"/>
	<path class="st3" d="M544.86,70.39l2.03-1.45h1.66l1.84-1.08v-0.72l3.69-2.35v-1.81l0.92-0.54h1.84v0.9l0.55,0.9l14.75-9.58v-1.08
		l3.69-2.17l1.11,0.54v1.27c0.55-0.18,1.11,0,1.29,0.36l1.29,1.81c0.37,1.27-0.18,1.99-1.29,2.71l-17.89,11.39
		c0.18,0.9-0.18,1.27-0.92,1.63l1.11,1.08v0.9l-1.29,1.08h-0.74l-1.29-1.27h-0.74l-2.95,1.81h-1.11l-0.74,1.81l0.92,0.54l1.11,2.17
		l-0.92,1.27v1.63c-0.18,1.63-0.92,2.71-2.21,3.44l2.58,0.54v-0.9l1.66-1.08h0.55l0.55-0.54h1.48l0.55-1.08
		c0.55-0.72,1.29-1.08,2.21-1.27c0.55-0.18,1.29-0.18,2.21,0c1.11,0.72,1.66,1.81,1.66,3.07c-0.18,0.54-0.37,1.08-0.74,1.81
		c-0.55,0.72-1.29,1.08-2.4,1.27h-1.11l0.55,1.08v0.72l-1.66,1.63l0.55,0.54c0.37-0.54,1.11-1.08,2.21-1.63
		c1.11-0.36,2.4-0.54,3.87-0.54c1.29,0.18,2.4,0.36,3.32,0.54l0.55-0.72v-1.27l1.11-0.54l1.11,0.54l0.92-1.27l-1.29-0.54l-1.11,1.08
		h-0.92v-1.27l-2.21-2.53v-3.44l2.58,1.08l0.92-0.54v-0.9l1.11-0.54v1.08l2.03-0.9v2.71l2.03,0.72v-1.08l1.11-0.54v0.9l2.21-1.08
		v2.71l2.58,0.9v2.89l-4.61,0.54v0.9l3.69,1.81v3.98l3.69,1.81c0.55,0.54,1.11,1.27,1.11,2.17l2.58-0.72v-1.08l3.5-1.45l1.84,2.53
		l2.21-1.08v-0.72l2.21-0.9h1.66l4.43-2.17v-0.9l1.66-0.72l1.11,0.54l0.92-0.54v-0.9c0.92-0.54,2.03-1.08,3.14-1.27l0.55,0.36
		l0.92-0.54c0.37,0.18,0.55,0.36,0.55,0.9l-0.55,0.36l0.37,0.54l0.92-0.54c0.37,0.18,0.55,0.36,0.55,0.9l-0.55,0.54v0.36l0.55-0.36
		c0.37,0.18,0.37,0.36,0.37,0.9l-0.92,0.54l-0.55,0.9c-0.92,0.54-1.84,1.08-2.77,1.27l-1.11-0.36h-1.11l-0.37,0.72l-1.29,0.54h-0.92
		L600,98.6l-0.37,1.08l-2.58,1.08h-1.29l-0.74,0.36v0.9l-0.55,0.54v0.9l-2.4,1.81l-3.32,1.45l-0.37,0.9l-0.92,0.54
		c0,0.54-0.18,1.27-0.37,1.99c-1.29,1.63-2.95,2.53-4.98,3.25c-0.92,0.36-2.03,0.36-2.95,0c-1.11-0.54-2.21-1.08-2.77-1.81h-0.55
		l-2.58,1.27l-7.01,1.45v0.36l2.58,0.36c0.18-0.36,0.55-0.54,1.11-0.54c0.55-0.18,1.11-0.18,1.84,0.18
		c0.55,0.18,1.11,0.54,1.29,1.27c0.18,0.54,0.37,1.08,0.18,1.81h0.37c0.55-0.54,1.29-1.08,2.03-1.27c1.29-0.36,2.58-0.54,3.69-0.9
		l0.55,0.36c0.74,0.9,1.84,1.27,3.14,1.45c1.29,0.18,2.58,0,3.5-0.36h1.11c2.95,2.17,5.53,4.7,7.93,7.41l0.37-0.72h1.11l0.55,0.54
		l0.92,3.25l-0.55,5.97l-1.66,0.36l-0.37-0.54l-2.21,0.36l-0.74,0.9h-1.84l-0.37-0.36l-2.03,5.06L588.2,140l-2.77,0.54l-0.55,0.9
		l1.11,1.81l0.37,2.17l2.4,7.23l0.37,0.36l0.55-0.36l2.03,2.71v3.44l0.92,0.9l0.55,1.81l6.64,3.43v1.81l-4.06,0.9l-6.27-1.45
		l-2.21,0.36l-1.29-0.9l-7.93,0.72l-1.29-0.54v-0.36l1.66-1.99l2.21-0.54l-0.55-0.54v-0.72l1.11-1.27l-0.92-2.53l-6.27-6.15h-2.03
		l-1.84-4.16l0.37-3.44l0.92-1.99l2.4-0.36l0.92,0.36h1.11l2.03-6.51l0.55-0.9l-0.92-3.07l-0.18-0.18l-0.37-2.35l-2.21-0.36
		l-4.79,6.15l-5.16,1.27h-2.03l-0.37-1.63l-4.24,0.9l-1.29-0.36l-0.55-8.5c-2.77-0.18-4.24-1.09-4.43-2.71h-0.55l-1.11,2.53v3.07
		l-1.84,6.15l-3.32,4.16l-0.92-0.54l-0.37,0.54v1.27l0.92,0.54l-1.11,5.61l-2.21,7.96v4.88l-1.29,3.25v1.81l3.87,0.54l1.84,1.99v0.9
		h-3.5l-7.19-1.27h-1.84l-1.84,0.54h-4.24l-1.48-1.09v-1.45l4.24-1.81l0.92-1.81l1.29-4.16l-0.92-10.12l-0.92-0.9l1.29-5.97
		l1.48-2.35h1.84v-1.63h0.55l0.92-2.53l1.11-2.17v-0.54l-2.21-0.9l-0.37-1.99l0.92-2.89l1.66-2.71l0.37-3.62l-0.37-1.27v-3.98
		l1.66-3.44l1.84-2.17h0.74l5.16,1.81V108l-4.06-0.54l-2.21-0.9l-1.29-0.9l-2.77,1.81l-2.58,1.08c-0.92,0.18-1.84,0.18-2.58,0
		c-1.11-0.36-2.03-1.08-2.77-1.81c-0.55-0.9-1.11-1.63-1.29-2.53c-0.37-1.08-0.18-2.35,0.18-3.62c0.55-1.81,1.66-3.44,3.14-5.06
		h1.11l0.92-0.9h0.37v-0.54l-0.55-0.36l0.37-4.34l-4.06,1.08h-1.29l-3.69-1.63l0.55-4.52l3.32-4.88V77.8h-1.11l0.92-3.25l1.66-2.53
		l1.84-1.27h1.11l4.98-2.71l6.09-0.9l-0.92,2.71l1.48,0.54H544.86z M579.9,129.15v2.35l-0.55,0.36v2.17l2.58-2.71l-0.92-1.27v-1.27
		L579.9,129.15z M534.16,154.29l1.11-1.27l0.37-3.43l-1.29-0.18v4.88H534.16z M539.14,151.57l-0.37,0.54v2.17h1.11l1.29-5.42
		l-2.58-0.18v1.09l0.37,0.36v1.45H539.14z"/>
</g>
</svg>
