<svg width="66" height="66" viewBox="0 0 66 66" fill="none" xmlns="http://www.w3.org/2000/svg">
<rect x="0.5" y="0.5" width="64.1429" height="64.1429" stroke="white"/>
<path d="M25.36 15.5005H39.64C45.08 15.5005 49.5 19.9205 49.5 25.3605V39.6405C49.5 42.2555 48.4612 44.7635 46.6121 46.6126C44.763 48.4617 42.255 49.5005 39.64 49.5005H25.36C19.92 49.5005 15.5 45.0805 15.5 39.6405V25.3605C15.5 22.7455 16.5388 20.2375 18.3879 18.3884C20.237 16.5393 22.745 15.5005 25.36 15.5005ZM25.02 18.9005C23.3969 18.9005 21.8402 19.5453 20.6925 20.693C19.5448 21.8407 18.9 23.3974 18.9 25.0205V39.9805C18.9 43.3635 21.637 46.1005 25.02 46.1005H39.98C41.6031 46.1005 43.1598 45.4557 44.3075 44.308C45.4552 43.1603 46.1 41.6036 46.1 39.9805V25.0205C46.1 21.6375 43.363 18.9005 39.98 18.9005H25.02ZM41.425 21.4505C41.9886 21.4505 42.5291 21.6744 42.9276 22.0729C43.3261 22.4714 43.55 23.0119 43.55 23.5755C43.55 24.1391 43.3261 24.6796 42.9276 25.0781C42.5291 25.4766 41.9886 25.7005 41.425 25.7005C40.8614 25.7005 40.3209 25.4766 39.9224 25.0781C39.5239 24.6796 39.3 24.1391 39.3 23.5755C39.3 23.0119 39.5239 22.4714 39.9224 22.0729C40.3209 21.6744 40.8614 21.4505 41.425 21.4505ZM32.5 24.0005C34.7543 24.0005 36.9163 24.896 38.5104 26.4901C40.1045 28.0841 41 30.2461 41 32.5005C41 34.7548 40.1045 36.9168 38.5104 38.5109C36.9163 40.105 34.7543 41.0005 32.5 41.0005C30.2457 41.0005 28.0837 40.105 26.4896 38.5109C24.8955 36.9168 24 34.7548 24 32.5005C24 30.2461 24.8955 28.0841 26.4896 26.4901C28.0837 24.896 30.2457 24.0005 32.5 24.0005ZM32.5 27.4005C31.1474 27.4005 29.8502 27.9378 28.8938 28.8942C27.9373 29.8507 27.4 31.1479 27.4 32.5005C27.4 33.8531 27.9373 35.1503 28.8938 36.1067C29.8502 37.0632 31.1474 37.6005 32.5 37.6005C33.8526 37.6005 35.1498 37.0632 36.1062 36.1067C37.0627 35.1503 37.6 33.8531 37.6 32.5005C37.6 31.1479 37.0627 29.8507 36.1062 28.8942C35.1498 27.9378 33.8526 27.4005 32.5 27.4005Z" fill="white"/>
</svg>
