<svg width="66" height="66" viewBox="0 0 66 66" fill="none" xmlns="http://www.w3.org/2000/svg">
<rect x="0.5" y="0.5" width="64.1429" height="64.1429" stroke="white"/>
<path d="M21.5461 20.9315C21.5456 21.8082 21.125 22.6487 20.3768 23.2683C19.6287 23.8879 18.6142 24.2357 17.5567 24.2353C16.4992 24.2348 15.4852 23.8862 14.7378 23.266C13.9904 22.6458 13.5708 21.8049 13.5713 20.9282C13.5718 20.0516 13.9924 19.211 14.7406 18.5915C15.4887 17.9719 16.5032 17.6241 17.5607 17.6245C18.6182 17.625 19.6322 17.9736 20.3796 18.5938C21.127 19.214 21.5466 20.0549 21.5461 20.9315ZM21.6657 26.6829H13.6909V47.3745H21.6657V26.6829ZM34.2659 26.6829H26.331V47.3745H34.1862V36.5164C34.1862 30.4675 43.6962 29.9056 43.6962 36.5164V47.3745H51.5713V34.2687C51.5713 24.0716 37.4957 24.4518 34.1862 29.4594L34.2659 26.6829Z" fill="white"/>
</svg>
