<svg width="1000" height="500" viewBox="0 0 1000 500" fill="none" xmlns="http://www.w3.org/2000/svg">
<path d="M456.638 178.724C453.451 212.897 454.494 252.029 454.494 252.029C454.494 252.029 471.429 254.024 486.564 253.085C487.102 219.616 483.811 177.57 483.811 177.57C474.737 177.253 465.652 177.639 456.638 178.724Z" fill="white"/>
<path d="M861.155 178.724C857.968 212.897 859.011 252.029 859.011 252.029C859.011 252.029 875.946 254.024 891.081 253.085C891.619 219.616 888.329 177.57 888.329 177.57C879.254 177.253 870.169 177.639 861.155 178.724Z" fill="white"/>
<path d="M442.061 250.618C444.238 239.932 442.977 228.256 442.977 228.256C442.977 228.256 436.503 227.375 427.304 228.667C430.483 202.378 430.591 177.755 430.591 177.755C420.23 176.277 409.744 175.864 399.299 176.52C396.328 213.004 400.715 253.182 400.715 253.182C400.715 253.182 421.849 253.623 442.061 250.618Z" fill="white"/>
<path d="M676.732 250.618C678.913 239.932 677.648 228.256 677.648 228.256C677.648 228.256 671.174 227.375 661.978 228.667C665.158 202.378 665.262 177.755 665.262 177.755C654.901 176.277 644.415 175.864 633.97 176.52C630.999 213.004 635.39 253.182 635.39 253.182C635.39 253.182 656.52 253.623 676.732 250.618Z" fill="white"/>
<path d="M818.331 254.058C830.747 254.058 850.185 248.816 851.043 230.939C851.999 211.053 836.955 211.053 836.955 211.053C836.955 211.053 847.049 209.065 846.269 194.478C845.418 178.893 831.366 174.963 814.909 175.75C797.241 176.578 784.425 181.221 784.425 181.221C784.425 181.221 781.094 217.948 788.16 250.952C805.993 254.391 818.331 254.058 818.331 254.058ZM813.059 190.606C817.433 190.767 820.007 193.27 820.535 196.662C821.168 200.7 818.658 204.482 812.584 205.454C812.559 205.452 812.533 205.452 812.507 205.454L813.059 190.606ZM811.154 220.384C817.09 220.518 820.515 223.54 821.161 227.678C821.925 232.574 818.523 237.194 810.475 238.621L811.154 220.384Z" fill="white"/>
<path d="M645.673 375.687C662.008 375.687 687.584 368.789 688.714 345.27C689.969 319.102 670.178 319.102 670.178 319.102C670.178 319.102 683.479 316.484 682.429 297.295C681.312 276.79 662.826 271.639 641.17 272.655C617.92 273.745 601.063 279.852 601.063 279.852C601.063 279.852 598.963 326.434 605.985 371.602C629.441 376.125 645.673 375.687 645.673 375.687ZM638.728 292.198C644.491 292.409 647.866 295.704 648.563 300.165C649.394 305.495 646.093 310.451 638.102 311.733H637.997L638.728 292.198ZM636.221 331.38C644.03 331.555 648.536 335.529 649.387 340.976C650.397 347.42 645.915 353.497 635.329 355.371L636.221 331.38Z" fill="white"/>
<path d="M942.572 254.327C946.865 253.947 952.39 253.617 959.91 251.047L965.691 249.23C965.691 249.23 969.113 229.378 966.7 215.175C952.145 214.59 943.208 217.773 943.208 217.773C943.255 223.227 944.981 229.176 944.981 229.176C940.439 229.815 931.959 229.401 931.317 216.228C930.149 195.212 954.533 202.359 954.533 202.359C960.963 194.182 965.802 182.308 965.802 182.308C958.686 178.412 945.23 175.097 934.315 175.959C913.1 177.641 895.384 193.688 899.008 221.349C901.888 243.513 920.499 256.269 942.572 254.327Z" fill="white"/>
<path d="M759.085 271.719C733.109 265.084 705.848 282.524 698.183 310.673C690.518 338.823 705.394 367.019 731.37 373.654C757.345 380.29 784.603 362.85 792.255 334.704C799.906 306.558 785.061 278.355 759.085 271.719ZM754.711 322.608C754.506 332.675 750.098 340.872 744.866 340.915C739.633 340.959 735.559 332.84 735.761 322.766C735.962 312.692 740.374 304.505 745.606 304.462C750.838 304.418 754.913 312.544 754.711 322.608Z" fill="white"/>
<path d="M556.123 271.719C530.147 265.084 502.886 282.524 495.238 310.673C487.589 338.823 502.448 367.019 528.424 373.654C554.4 380.29 581.658 362.85 589.326 334.704C596.994 306.558 582.099 278.355 556.123 271.719ZM551.749 322.608C551.543 332.675 547.135 340.872 541.903 340.915C536.671 340.959 532.596 332.84 532.798 322.766C533 312.692 537.411 304.505 542.644 304.462C547.876 304.418 551.954 312.544 551.749 322.608Z" fill="white"/>
<path d="M968.279 335.828C968.279 335.828 966.849 318.412 942.303 311.672C937.256 310.326 926.488 308.166 927.616 301.914C930.307 288.425 953.12 304.27 953.12 304.27C953.12 304.27 961.532 294.155 966.6 281.894C966.6 281.894 950.886 268.822 923.531 270.38C900.213 271.726 887.016 283.819 888.783 303.355C890.549 322.89 908.928 327.49 917.003 328.859C924.668 330.155 930.23 332.924 929.338 338.015C927.431 348.446 905.98 339.024 904.103 338.153C902.225 337.281 895.936 333.913 895.936 333.913C890.393 343.468 886.212 353.75 883.514 364.462C883.514 364.462 903.268 374.418 929.809 374.418C956.559 374.401 971.118 358.533 968.279 335.828Z" fill="white"/>
<path d="M511.943 200.707C510.597 226.875 510.998 252.652 510.998 252.652C510.998 252.652 528.653 253.927 542.29 251.417C541.54 218.85 539.578 203.974 539.262 201.158C544.043 201.111 549.188 201.003 554.686 200.821C555.991 186.585 553.676 175.794 553.676 175.794C553.676 175.794 522.986 174.492 495.924 178.281C495.468 185.411 495.734 192.57 496.718 199.647C496.718 199.647 502.027 200.253 511.943 200.707Z" fill="white"/>
<path d="M579.411 200.707C578.065 226.875 578.466 252.652 578.466 252.652C578.466 252.652 596.12 253.927 609.758 251.417C609.007 218.85 607.046 203.974 606.73 201.158C611.511 201.111 616.656 201.003 622.154 200.821C623.459 186.585 621.144 175.794 621.144 175.794C621.144 175.794 590.454 174.492 563.392 178.281C562.935 185.411 563.201 192.57 564.186 199.647C564.186 199.647 569.495 200.253 579.411 200.707Z" fill="white"/>
<path d="M821.02 306.225C819.25 340.182 819.788 373.624 819.788 373.624C819.788 373.624 842.699 375.28 860.401 372.023C859.429 329.758 856.885 310.448 856.481 306.797C862.686 306.736 869.358 306.585 876.498 306.343C878.18 287.867 875.182 273.866 875.182 273.866C875.182 273.866 835.354 272.184 800.229 277.093C799.176 291.477 801.262 304.818 801.262 304.818C801.262 304.818 808.15 305.633 821.02 306.225Z" fill="white"/>
<path d="M737.244 229.844C724.263 230.265 717.305 231.793 717.305 231.793C717.729 228.764 718.099 224.121 718.341 220.672C718.341 220.672 726.995 221.722 736.827 221.974C737.496 216.824 737.284 211.598 736.198 206.52C730.414 206.63 724.644 207.141 718.93 208.048C719.233 202.213 719.031 197.314 719.031 197.314C725.712 198.114 732.438 198.471 739.166 198.384C741.858 190.931 741.403 175.988 741.403 175.988C741.403 175.988 710.589 175.1 687.715 178.344C684.869 224.71 689.102 253.283 689.102 253.283C715.289 254.841 740.784 251.059 740.784 251.059C740.784 251.059 741.407 239.104 737.244 229.844Z" fill="white"/>
<path d="M467.279 335.602C467.279 335.602 487.01 326.669 484.467 302.742C482.165 281.093 463.989 270.562 441.034 271.638C416.391 272.796 398.016 278.072 398.016 278.072C398.016 278.072 392.824 320.693 401.186 375.125C401.186 375.125 415.018 376.218 434.682 376.908L435.604 344.67C435.604 344.67 440.102 361.386 448.726 377.309C448.726 377.309 474.51 377.568 489.231 377.164C489.234 377.157 484.231 360.38 467.279 335.602ZM436.021 324.411C435.987 324.411 435.95 324.411 435.917 324.411L437.141 299.596C443.016 300.269 447.02 304.808 447.619 310.532C448.336 317.389 444.211 323.351 436.021 324.421V324.411Z" fill="white"/>
<path d="M276.059 385.259C274.219 385.259 270.625 384.894 266.476 382.583C247.78 393.361 230.71 402.693 217.294 409.849C209.511 414 200.825 416.171 192.003 416.171C183.182 416.171 174.496 414 166.713 409.849C152.898 402.489 135.23 392.819 115.894 381.643C109.892 385.024 104.941 385.229 103.85 385.229H88.7939C115.754 401.332 140.897 415.151 158.807 424.701C169.028 430.15 180.432 433 192.015 433C203.598 433 215.003 430.15 225.223 424.701C243.126 415.154 268.253 401.345 295.203 385.252H276.467L276.059 385.259Z" fill="#F9D936"/>
<path d="M49.6207 207.439C49.9296 198.632 52.399 190.037 56.8114 182.409C61.2238 174.781 67.444 168.354 74.9245 163.695L78.3037 161.597C77.4851 160.226 76.7123 158.795 75.9851 157.305C74.0672 153.325 73.3688 148.866 73.9777 144.49C71.184 146.21 68.5241 147.859 66.0215 149.418C56.1979 155.532 48.0304 163.97 42.2398 173.986C36.4493 184.003 33.2136 195.291 32.8183 206.853C31.3696 248.386 32.1124 288.009 32.9923 313.937C33.2984 323.059 35.3733 332.033 39.1016 340.364C41.2864 327.833 44.8095 316.59 49.6006 306.872C48.8043 280.948 48.3091 244.974 49.6207 207.439Z" fill="#F9D936"/>
<path d="M351.186 206.853C350.793 195.29 347.558 184.002 341.767 173.985C335.976 163.968 327.808 155.531 317.983 149.418C305.939 141.908 290.314 132.388 272.642 122.111C272.575 122.422 272.508 122.73 272.438 123.041C271.881 125.495 270.595 127.723 268.749 129.432C266.902 131.141 264.582 132.252 262.093 132.618L258.238 133.217C278.005 144.591 295.583 155.295 309.094 163.695C316.572 168.356 322.789 174.784 327.199 182.413C331.609 190.041 334.077 198.636 334.384 207.442C335.575 241.609 335.271 274.495 334.618 299.69C338.222 308.96 341.393 322.073 341.203 339.33C341.203 342.385 341.1 345.296 340.895 348.061C347.136 337.741 350.625 325.993 351.029 313.941C351.892 288.003 352.622 248.37 351.186 206.853Z" fill="#F9D936"/>
<path d="M311.687 283.069C310.215 282.276 302.924 278.991 293.653 279.894C284.382 280.797 273.164 284.577 273.164 284.577C269.748 285.33 262.979 286.638 258.901 287.31C258.901 287.31 251.761 283.035 251.089 274.826L254.705 275.214C266.081 276.937 277.346 276.255 282.893 274.974C287.718 273.863 292.91 267.972 294.998 264.65L306.531 246.373C307.859 244.273 308.756 241.93 309.169 239.48C309.583 237.03 309.505 234.522 308.94 232.102C308.251 229.219 307.525 226.459 306.772 223.803L312.46 211.667C307.602 193.938 299.819 178.279 299.819 178.279L283.017 175.122C280.756 172.885 278.221 170.944 275.472 169.345C234.223 145.44 211.258 146.313 211.258 146.313C209.819 146.186 208.397 146.076 206.978 145.979L198.865 146.076L200.31 145.407L205.694 137.64C208.231 134.017 209.555 129.684 209.478 125.263C209.483 124.684 209.69 124.126 210.063 123.684C210.436 123.243 210.952 122.946 211.522 122.844L232.456 118.763L234.353 118.395L237.582 124.51C237.839 124.983 238.237 125.364 238.721 125.601C239.205 125.838 239.75 125.918 240.282 125.831L260.567 122.687C261.064 122.618 261.528 122.401 261.901 122.065C262.274 121.73 262.537 121.29 262.658 120.804C269.497 90.6975 257.616 71.0616 254.08 66.0674C253.8 65.6823 253.419 65.3819 252.979 65.1989C252.539 65.016 252.058 64.9577 251.587 65.0304L229.572 68.2049C229.055 68.271 228.571 68.4965 228.188 68.8502C227.805 69.2039 227.541 69.6682 227.434 70.1785L226.139 76.7584L224.359 77.0226L192.17 81.7961L185.318 76.3503C185.028 76.1238 184.693 75.9603 184.336 75.8705C183.979 75.7806 183.607 75.7663 183.244 75.8284L155.808 80.4447C155.281 80.5313 154.794 80.7791 154.413 81.1539L138.528 96.9428L119.969 99.5855C119.591 99.6341 119.228 99.7674 118.908 99.9753C118.589 100.183 118.32 100.46 118.122 100.786C109.58 115.528 118.701 127.935 121.779 131.471C122.057 131.787 122.406 132.031 122.798 132.184C123.19 132.336 123.613 132.392 124.031 132.348L142.767 130.391L142.807 130.454C145.484 134.927 150.71 137.419 156.059 136.783C158.171 136.536 159.656 138.71 158.569 140.463L154.293 147.203C150.997 147.611 147.889 148.06 144.988 148.541C144.988 148.541 127.925 150.287 119.848 146.758C111.772 143.229 102.946 137.168 102.946 137.168L91.5969 134.887C90.8734 134.75 90.1252 134.85 89.4626 135.171C88.8 135.492 88.2581 136.017 87.9166 136.669L85.4374 141.182C83.43 144.885 83.2192 149.254 84.9958 152.907C88.0973 159.262 94.2568 168.522 104.592 170.84C104.89 170.907 105.194 170.944 105.499 170.99C102.307 176.216 99.3223 182.11 97.8936 187.649C94.0494 202.555 85.5947 224.469 100.122 229.316L106.067 231.835L109.962 240.97C111.987 245.682 115.667 249.489 120.307 251.675L130.608 256.485L149.063 263.878C139.19 266.815 128.685 277.947 126.851 281.654C122.535 280.085 108.741 276.673 105.144 276.382C95.4847 275.626 58.0458 284.684 48.6008 344.355C48.6008 344.355 44.4152 375.173 56.4231 375.173H103.839C103.839 375.173 121.036 375.354 128.718 343.525C132.044 329.235 135.199 320.568 135.891 312.921C142.362 314.215 144.48 314.928 150.499 315.309C148.736 321.193 147.217 326.973 146.644 331.065C145.38 340.14 140.957 375.177 156.611 375.177H201.953C201.953 375.177 220.02 376.538 223.7 336.504C223.7 336.504 224.125 330.513 224.068 323.086C228.368 327.586 239.158 330.399 245.936 330.399C248.898 330.402 251.834 329.854 254.595 328.783C258.145 376.745 276.242 375.183 276.242 375.183H314.678C314.678 375.183 331.152 377.264 331.142 339.233C331.607 299.236 313.162 283.862 311.687 283.069Z" fill="white"/>
</svg>
