<svg width="155" height="37" viewBox="0 0 155 37" fill="none" xmlns="http://www.w3.org/2000/svg">
<path fill-rule="evenodd" clip-rule="evenodd" d="M33.248 0.0380859L24.4712 9.87144L15.7052 0.0507451L0.0917969 17.5435L6.78333 25.0405L15.6013 15.1617L24.384 25.0019L33.206 15.1179L36.7463 19.0946L27.9292 28.9734L34.6743 36.5303L60.4882 7.60889L53.743 0.052247L43.502 11.5259L33.2484 0.0380859H33.248Z" fill="white"/>
<path fill-rule="evenodd" clip-rule="evenodd" d="M87.6247 13.1519L84.2326 18.2398L80.68 13.1519H78.1514L83.1252 20.2454V24.5557H85.281V20.2439L90.1167 13.1519H87.6247Z" fill="white"/>
<path fill-rule="evenodd" clip-rule="evenodd" d="M99.2968 18.2778V20.2811H102.965V22.4991C102.162 22.7417 101.191 22.8799 100.273 22.8799C97.4546 22.8799 95.7718 21.4557 95.7718 19.07C95.7718 16.7912 97.5806 15.2603 100.273 15.2603C101.557 15.2603 102.894 15.5438 104.141 16.0808L104.34 16.1662L105.003 14.2682L104.824 14.1931C103.293 13.55 101.712 13.2236 100.125 13.2236C96.1863 13.2236 93.54 15.6134 93.54 19.1706C93.54 22.7684 96.0262 24.9166 100.191 24.9166C101.833 24.9166 103.72 24.5212 104.998 23.9095L105.114 23.8535V18.2778H99.2968Z" fill="white"/>
<path fill-rule="evenodd" clip-rule="evenodd" d="M138.19 22.7452V19.9455H143.618V17.9421H138.19V15.3098H144.177V13.3066H136.04V24.7486H144.275V22.7452H138.19Z" fill="white"/>
<path fill-rule="evenodd" clip-rule="evenodd" d="M150.719 17.9865C149.044 17.745 148.026 17.5297 148.026 16.5764C148.026 15.7399 148.869 15.2603 150.34 15.2603C151.885 15.2603 153.218 15.8536 153.72 16.1087L153.903 16.2021L154.75 14.4356L154.587 14.3392C153.404 13.6405 151.774 13.2236 150.225 13.2236C147.451 13.2236 145.794 14.5146 145.794 16.6765C145.794 17.7185 146.145 18.4848 146.865 19.0195C147.749 19.6746 149.035 19.8585 150.171 20.0205C151.782 20.2506 152.769 20.4368 152.769 21.3292C152.769 22.7286 150.828 22.8799 149.994 22.8799C148.746 22.8799 147.592 22.5577 146.563 21.9224L146.384 21.8116L145.398 23.5883L145.557 23.6944C146.392 24.2517 147.837 24.9164 149.978 24.9164C153.029 24.9164 155 23.4756 155 21.2456C155 18.6034 152.627 18.2614 150.719 17.9865Z" fill="white"/>
<path fill-rule="evenodd" clip-rule="evenodd" d="M66.2725 24.7477L68.4564 18.4244L72.1446 24.7077L75.833 18.4244L78.0168 24.7477H80.2629L76.3364 13.2324L72.1446 20.3988L67.9529 13.2324L64.0264 24.7477H66.2725Z" fill="white"/>
<path fill-rule="evenodd" clip-rule="evenodd" d="M112.066 17.8641L113.732 20.9018H110.405L112.066 17.8641ZM108.291 24.748L109.448 22.6464L114.686 22.643L115.84 24.748H118.273L112.066 13.2329L105.857 24.748H108.291Z" fill="white"/>
<path fill-rule="evenodd" clip-rule="evenodd" d="M121.034 24.7477L123.218 18.2406L126.906 24.7077L130.594 18.2406L132.778 24.7477H135.024L131.098 13.2324L126.906 20.3988L122.714 13.2324L118.788 24.7477H121.034Z" fill="white"/>
<path fill-rule="evenodd" clip-rule="evenodd" d="M91.93 22.962L90.0093 24.9163L88.0889 22.962L90.0093 21.0078L91.93 22.962Z" fill="white"/>
<path fill-rule="evenodd" clip-rule="evenodd" d="M51.5136 23.7416C51.4691 23.7597 51.4021 23.7688 51.3129 23.7688H51.122V23.3275H51.3024C51.4196 23.3275 51.5046 23.3426 51.5576 23.3728C51.6109 23.4029 51.6374 23.4625 51.6374 23.5511C51.6374 23.645 51.5962 23.7083 51.5136 23.7416ZM51.8261 24.3214C51.8241 24.2892 51.8231 24.2591 51.8231 24.2308V24.1416C51.8231 24.0804 51.8012 24.0175 51.758 23.953C51.7146 23.8886 51.6461 23.849 51.5526 23.8337C51.6264 23.8218 51.6842 23.8019 51.7253 23.7747C51.8034 23.7234 51.8423 23.643 51.8423 23.5342C51.8423 23.3807 51.7805 23.2781 51.6568 23.2255C51.5873 23.1963 51.4784 23.1817 51.3299 23.1817H50.911V24.4H51.1219V23.9208H51.2882C51.4001 23.9208 51.4784 23.9339 51.5229 23.96C51.5982 24.0053 51.6359 24.098 51.6359 24.2387V24.3351L51.6403 24.3743C51.6416 24.3793 51.6425 24.3839 51.6433 24.3878C51.6442 24.3919 51.6451 24.3959 51.6461 24.4H51.8438L51.8363 24.385C51.8312 24.3747 51.828 24.3536 51.8261 24.3214ZM51.3504 24.7546C50.832 24.7546 50.4105 24.3255 50.4105 23.798C50.4105 23.2705 50.832 22.8414 51.3504 22.8414C51.8686 22.8414 52.2905 23.2705 52.2905 23.798C52.2905 24.3255 51.8686 24.7546 51.3504 24.7546ZM51.3504 22.6865C50.7475 22.6865 50.2588 23.1838 50.2588 23.7973C50.2588 24.4108 50.7475 24.908 51.3504 24.908C51.9533 24.908 52.442 24.4108 52.442 23.7973C52.442 23.1838 51.9533 22.6865 51.3504 22.6865Z" fill="white"/>
</svg>
