<svg width="139" height="40" viewBox="0 0 139 40" fill="none" xmlns="http://www.w3.org/2000/svg">
<g clip-path="url(#clip0_2293_5729)">
<path d="M52.9756 27.1933V13.7607H58.268C59.8283 13.7607 61.0681 14.1701 61.9895 14.9888C62.9109 15.8075 63.3706 16.9068 63.3706 18.2889C63.3706 19.671 62.8624 20.8611 61.8461 21.6671C60.8298 22.4731 59.5478 22.8762 58.0023 22.8762H55.3371V27.1954H52.9777L52.9756 27.1933ZM55.335 20.745H58.0782C58.9596 20.745 59.6638 20.5213 60.1888 20.074C60.7117 19.6267 60.9753 19.038 60.9753 18.3079C60.9753 17.5398 60.716 16.949 60.1973 16.5333C59.6807 16.1177 58.9722 15.9088 58.0782 15.9088H55.335V20.745Z" fill="white"/>
<path d="M66.6494 27.1933V13.7607H69.0088V27.1954H66.6494V27.1933Z" fill="white"/>
<path d="M72.3066 27.194L77.1963 20.3616L72.4985 13.7593H75.2797L78.6153 18.5765L81.9721 13.7593H84.6773L79.9985 20.3236L84.8692 27.194H82.0881L78.5584 22.1087L75.0119 27.194H72.3066Z" fill="white"/>
<path d="M98.5234 25.3907C97.1929 26.7475 95.5124 27.4248 93.4798 27.4248C91.4472 27.4248 89.773 26.7538 88.4552 25.4097C87.1395 24.0656 86.4795 22.4219 86.4795 20.4785C86.4795 18.5352 87.1437 16.921 88.4742 15.5663C89.8046 14.2096 91.4851 13.5322 93.5177 13.5322C95.5503 13.5322 97.2245 14.2032 98.5423 15.5473C99.8581 16.8914 100.518 18.5352 100.518 20.4806C100.518 22.4261 99.8538 24.0382 98.5234 25.3928V25.3907ZM90.2474 23.8651C91.1098 24.7936 92.1999 25.2557 93.5177 25.2557C94.8356 25.2557 95.9172 24.7957 96.7691 23.8736C97.6188 22.9515 98.0447 21.8205 98.0447 20.4764C98.0447 19.1323 97.6125 18.0161 96.7501 17.0898C95.8877 16.1635 94.7955 15.6992 93.4798 15.6992C92.1641 15.6992 91.0803 16.1592 90.2284 17.0813C89.3787 18.0034 88.9528 19.1344 88.9528 20.4785C88.9528 21.8226 89.385 22.9388 90.2474 23.8651Z" fill="white"/>
<path d="M104.103 27.1933V13.7607H106.289L113.481 23.0492V13.7607H115.801V27.1954H113.825L106.422 17.639V27.1954H104.103V27.1933Z" fill="white"/>
<path d="M120.117 27.1933V13.7607H122.477V27.1954H120.117V27.1933Z" fill="white"/>
<path d="M133.024 27.4236C131.082 27.4236 129.456 26.7548 128.153 25.417C126.85 24.0813 126.196 22.4334 126.196 20.4752C126.196 18.5171 126.848 16.8861 128.153 15.542C129.456 14.1979 131.113 13.5269 133.121 13.5269C134.285 13.5269 135.271 13.7062 136.083 14.0649C136.895 14.4236 137.66 14.9427 138.375 15.62L136.859 17.3671C135.657 16.253 134.405 15.6981 133.1 15.6981C131.794 15.6981 130.763 16.1581 129.926 17.0802C129.089 18.0023 128.67 19.1333 128.67 20.4774C128.67 21.8215 129.091 22.9377 129.935 23.864C130.778 24.7924 131.832 25.2545 133.1 25.2545C133.865 25.2545 134.544 25.111 135.132 24.8219C135.72 24.535 136.328 24.0961 136.954 23.5074L138.468 25.0435C137.713 25.8369 136.914 26.4319 136.07 26.8286C135.227 27.2253 134.211 27.4236 133.022 27.4236H133.024Z" fill="white"/>
<path d="M35.3221 11.3313L37.5288 7.04258L36.0163 3.51073L30.8904 0.655273L27.4561 1.78137L24.9644 4.54908L16.9377 4.80501L13.7153 6.05542L11.8812 4.16153L7.10972 5.26569L5.98444 8.54891L6.0429 12.3769L4.39152 15.2324L4.04809 18.9068L0 23.031L1.07413 30.2701L3.66447 33.9519L9.33106 36.3503L14.3692 39.9114H21.8407L34.6206 33.6119L38.7418 26.0729V16.6254L35.3258 11.3313H35.3221ZM7.71986 13.8759L14.1939 8.23083L17.387 6.99139L24.7708 6.75374L28.0553 13.6419L24.3543 15.6638L28.5229 18.0147L23.3276 22.0474L23.1815 22.1315L19.4038 14.0916L14.3254 15.8832L8.10348 15.8576L6.91974 15.2543L7.71621 13.8759H7.71986ZM36.5387 25.5062L33.0204 31.941L21.3255 37.7068H15.0671L10.4052 34.4126L5.52776 32.3505L6.29134 31.2646L10.6646 32.9684L15.4982 31.9593L15.5128 31.2646L10.6646 31.2792L5.50583 29.0526L4.15404 30.8259L3.17124 29.4292L2.58303 25.4513L5.30124 27.0673L6.25846 25.9047L8.20943 25.0455L10.1312 23.1918L5.62275 22.0657L3.67908 22.4167L5.96252 20.0877L7.72717 19.0604H10.639L21.0625 23.3746L26.4989 26.0509L26.4075 22.1169L32.6879 19.8245L29.3413 18.1792L33.4296 12.4537L36.5351 17.2652V25.4989L36.5387 25.5062Z" fill="white"/>
</g>
<defs>
<clipPath id="clip0_2293_5729">
<rect width="138.389" height="39.08" fill="white" transform="translate(0 0.654785)"/>
</clipPath>
</defs>
</svg>
