<svg width="18" height="18" viewBox="0 0 18 18" fill="none" xmlns="http://www.w3.org/2000/svg">
<path fill-rule="evenodd" clip-rule="evenodd" d="M17.9996 16.4504L16.4396 18.0004L11.8396 13.4004C10.6196 14.3004 9.13965 14.8504 7.48965 14.8504C3.42965 14.8504 0.139648 11.5504 0.139648 7.50039C0.149648 3.44039 3.44965 0.150391 7.49965 0.150391C11.5596 0.150391 14.8496 3.45039 14.8496 7.50039C14.8496 9.14039 14.2996 10.6304 13.3896 11.8504L17.9896 16.4504H17.9996ZM7.49965 2.00039C4.45965 2.00039 1.99965 4.46039 1.99965 7.50039C1.99965 10.5404 4.45965 13.0004 7.49965 13.0004C10.5396 13.0004 12.9996 10.5404 12.9996 7.50039C12.9996 4.46039 10.5396 2.00039 7.49965 2.00039Z" fill="#919699"/>
</svg>
