<svg width="48" height="48" viewBox="0 0 48 48" fill="none" xmlns="http://www.w3.org/2000/svg">
<path d="M24.1084 4.33887C26.7048 4.33887 29.2757 4.85026 31.6744 5.84383C34.0731 6.83741 36.2526 8.29372 38.0885 10.1296C39.9244 11.9655 41.3807 14.145 42.3743 16.5437C43.3679 18.9424 43.8793 21.5134 43.8793 24.1097C43.8793 29.3533 41.7963 34.382 38.0885 38.0898C34.3808 41.7975 29.352 43.8805 24.1084 43.8805C15.0138 43.8805 7.40206 37.7911 5.04934 29.5071L12.6216 32.6309C12.8821 33.8969 13.5709 35.0344 14.572 35.8519C15.5731 36.6693 16.8254 37.1168 18.1179 37.1189C21.2021 37.1189 23.713 34.608 23.713 31.5238V31.2667L30.4351 26.4624H30.5933C34.7056 26.4624 38.0469 23.1212 38.0469 19.0088C38.0469 14.8965 34.7056 11.5552 30.5933 11.5552C26.4809 11.5552 23.1199 14.8965 23.1199 19.0088V19.1077L18.4342 25.9484L18.1179 25.9286C16.9514 25.9286 15.864 26.2845 14.9743 26.8974L4.33759 22.528C5.18773 12.3461 13.6892 4.33887 24.1084 4.33887ZM16.7537 34.3312C18.3353 34.9837 20.1543 34.2521 20.8067 32.6705C21.4591 31.0888 20.7078 29.2897 19.1657 28.6372L16.635 27.5894C17.6038 27.2335 18.6912 27.2137 19.7193 27.6487C20.7671 28.0639 21.5778 28.8745 21.9929 29.9223C22.4279 30.9504 22.4279 32.0971 21.9929 33.1252C21.1428 35.2605 18.6319 36.2885 16.4966 35.3988C15.5081 34.9837 14.7568 34.2324 14.3416 33.3427L16.7537 34.3312ZM35.5755 19.0088C35.5755 21.757 33.3414 23.9911 30.5933 23.9911C29.2753 23.9858 28.0131 23.4586 27.083 22.5248C26.153 21.591 25.6308 20.3268 25.6308 19.0088C25.6282 18.3564 25.7547 17.7099 26.0032 17.1067C26.2517 16.5034 26.6171 15.9553 27.0784 15.494C27.5397 15.0327 28.0878 14.6672 28.6911 14.4188C29.2944 14.1703 29.9408 14.0437 30.5933 14.0463C31.9112 14.0463 33.1755 14.5685 34.1093 15.4986C35.0431 16.4287 35.5703 17.6909 35.5755 19.0088ZM26.8763 19.0088C26.8763 21.065 28.5371 22.7455 30.613 22.7455C32.6692 22.7455 34.3299 21.065 34.3299 19.0088C34.3299 16.9527 32.6692 15.2721 30.613 15.2721C28.5371 15.2721 26.8763 16.9527 26.8763 19.0088Z" fill="white"/>
</svg>
