<svg width="129" height="51" viewBox="0 0 129 51" fill="none" xmlns="http://www.w3.org/2000/svg">
<rect x="98.9009" y="0.375" width="10" height="10" fill="#0C16FA"/>
<rect x="108.901" y="10.375" width="10" height="10" fill="#0C16FA"/>
<rect x="118.901" y="20.375" width="10" height="10" fill="#0C16FA"/>
<rect x="108.901" y="30.375" width="10" height="10" fill="#0C16FA"/>
<rect x="98.9009" y="40.375" width="10" height="10" fill="#0C16FA"/>
<rect x="49.4502" y="0.375" width="10" height="10" fill="#0C16FA"/>
<rect x="59.4502" y="10.375" width="10" height="10" fill="#0C16FA"/>
<rect x="69.4502" y="20.375" width="10" height="10" fill="#0C16FA"/>
<rect x="59.4502" y="30.375" width="10" height="10" fill="#0C16FA"/>
<rect x="49.4502" y="40.375" width="10" height="10" fill="#0C16FA"/>
<rect y="0.375" width="10" height="10" fill="#0C16FA"/>
<rect x="10" y="10.375" width="10" height="10" fill="#0C16FA"/>
<rect x="20" y="20.375" width="10" height="10" fill="#0C16FA"/>
<rect x="10" y="30.375" width="10" height="10" fill="#0C16FA"/>
<rect y="40.375" width="10" height="10" fill="#0C16FA"/>
</svg>
