<svg width="66" height="66" viewBox="0 0 66 66" fill="none" xmlns="http://www.w3.org/2000/svg">
<rect x="0.5" y="0.5" width="64.1429" height="64.1429" stroke="white"/>
<path d="M49.0073 24.7172C49.0311 25.0536 49.0311 25.39 49.0311 25.7295C49.0311 36.072 40.9824 48 26.2649 48V47.9936C21.917 47.9998 17.6593 46.7817 14 44.4848C14.6322 44.5592 15.2675 44.5963 15.9045 44.5978C19.508 44.6006 23.0079 43.4182 25.8417 41.2408C24.1721 41.2099 22.554 40.6694 21.2138 39.6948C19.8736 38.7203 18.8781 37.3604 18.3667 35.8053C19.5655 36.0314 20.8013 35.9853 21.979 35.6705C18.2462 34.9327 15.5606 31.7245 15.5606 27.9984V27.8992C16.6734 28.5055 17.9188 28.8415 19.192 28.8789C15.6764 26.5803 14.5926 22.0049 16.7155 18.4277C18.7243 20.8458 21.2306 22.8235 24.0716 24.2323C26.9127 25.6411 30.0249 26.4496 33.2062 26.6051C32.889 25.2695 32.9359 23.8758 33.3421 22.5634C33.7483 21.2511 34.4996 20.0661 35.5208 19.1269C38.7435 16.1634 43.812 16.3154 46.8415 19.4662C48.6333 19.1202 50.3516 18.4776 51.9225 17.5661C51.3252 19.3784 50.0752 20.9167 48.4052 21.8949C49.9913 21.7121 51.5403 21.2968 53 20.6629C51.9262 22.236 50.5741 23.6088 49.0073 24.7172Z" fill="white"/>
</svg>
